<svg xmlns="http://www.w3.org/2000/svg" xmlns:xlink="http://www.w3.org/1999/xlink" id="Layer_1" data-name="Layer 1" viewBox="0 0 621 136"><defs><style>.cls-1{font-size:166.47px;font-family:SegoeUIBlack-Italic, Segoe UI;font-style:italic;letter-spacing:-0.13em;}.cls-2{letter-spacing:-0.1em;}.cls-3{letter-spacing:-0.1em;}.cls-4{letter-spacing:-0.08em;}.cls-5{letter-spacing:-0.1em;}.cls-6{letter-spacing:-0.12em;}.cls-7{letter-spacing:-0.11em;}.cls-8{letter-spacing:-0.05em;}.cls-9{fill:url(#linear-gradient);}</style><linearGradient id="linear-gradient" x1="213.48" y1="247.5" x2="400.31" y2="-76.1" gradientUnits="userSpaceOnUse"><stop offset="0" stop-color="#55a8af"/><stop offset="0.53" stop-color="#7fb4b9"/><stop offset="0.89" stop-color="#7cb3b9"/><stop offset="1" stop-color="#79b2b9"/></linearGradient></defs><path class="cls-9" d="M147.85,128.05H113.22l14.55-68.6L131.59,42h-.65l-6,14.47L92.09,128.05H59.82L55.67,60.5q-.48-6.82-.48-18.53h-.73q-2.37,18-5.45,32.84l-11.3,53.24H6.58L31.21,11.49H80.47l4.06,69.66q0,5.28-.41,11h.49Q86,88.22,87.46,84t3-7.68l28.45-64.78h53.65Z"/><path class="cls-9" d="M243.67,79.44a55,55,0,0,1-6.54,26.62,42.44,42.44,0,0,1-18.25,18q-11.72,6-27.48,6-19.26,0-29.79-9.67T151.09,93.26a55.93,55.93,0,0,1,3.74-20.08,46.62,46.62,0,0,1,10.4-16.54,44.31,44.31,0,0,1,16.38-10.28,64.15,64.15,0,0,1,22.23-3.58q19,0,29.42,9.55T243.67,79.44Zm-34.47,0c0-3.68-.78-6.49-2.35-8.41a7.79,7.79,0,0,0-6.34-2.89,10.55,10.55,0,0,0-7.81,3.46,23.7,23.7,0,0,0-5.24,9.51,41.31,41.31,0,0,0-1.91,12.47q0,5.53,2.4,8.34a8.06,8.06,0,0,0,6.46,2.8q6.66,0,10.73-7.15T209.2,79.44Z"/><path class="cls-9" d="M322,128.05h-34.3q0-2.6,1.22-14.8h-.32q-12.12,16.83-27.8,16.83-12.12,0-18.9-8.45t-6.79-23.57q0-16.19,7.2-28.82A49.43,49.43,0,0,1,262.5,49.69a61.39,61.39,0,0,1,29.14-6.91c.76,0,2.65.09,5.65.25a22.23,22.23,0,0,1,4.84.49L310.5,4.83H345l-19.84,94a132,132,0,0,0-2.23,14.63A142.69,142.69,0,0,0,322,128.05ZM297.82,65.3a31.16,31.16,0,0,0-5.12-.49,19.23,19.23,0,0,0-11.62,3.74q-5.13,3.74-8.33,11.34a37.8,37.8,0,0,0-3.21,14.83q0,4.88,2.19,7.44a6.71,6.71,0,0,0,5.28,2.56q5.61,0,10.2-6.54t7.44-19.06Z"/><path class="cls-9" d="M409.67,67.66q0,14.3-13.13,21.29t-40.43,7.8v.66a8.33,8.33,0,0,0,4,7.35q4,2.64,10.65,2.64a61.38,61.38,0,0,0,14.26-2,62.63,62.63,0,0,0,13.7-4.79l-4.8,22.67a69.11,69.11,0,0,1-15.4,4.92,87.71,87.71,0,0,1-18.09,1.91q-17.48,0-27.47-9.27t-10-25.36a54.6,54.6,0,0,1,6.87-27,47.68,47.68,0,0,1,18.94-19q12.08-6.66,27.84-6.67T401,49.21Q409.68,55.63,409.67,67.66Zm-31.94-.17a5.31,5.31,0,0,0-1.1-3.25c-.73-1-2-1.46-3.86-1.46a12.53,12.53,0,0,0-9.39,4.14q-3.94,4.15-5.32,11.71,9.18,0,14.42-2.76A9,9,0,0,0,377.73,67.49Z"/><path class="cls-9" d="M465.29,69.44a76.39,76.39,0,0,0-10.37-3.37,44.6,44.6,0,0,0-11.09-1.58q-7.49,0-7.48,4.63a4.06,4.06,0,0,0,1.87,3.7,36,36,0,0,0,5,2.48q9.68,3.9,13.78,7A19.43,19.43,0,0,1,463,89.72,25.76,25.76,0,0,1,465,100.41a24.79,24.79,0,0,1-5.12,15.49q-5.11,6.7-14.87,10.44t-23.66,3.74a104.13,104.13,0,0,1-15.89-1.18,87.49,87.49,0,0,1-13-2.88l4.47-23.9q14.46,6.59,25.68,6.58,10.17,0,10.16-5.28a4.49,4.49,0,0,0-2.23-3.86,23.65,23.65,0,0,0-5.65-2.64q-12.19-4-17.15-9.84T402.7,72a25.08,25.08,0,0,1,5.16-15.52A31,31,0,0,1,422.09,46.2a60.6,60.6,0,0,1,21.41-3.42,105.09,105.09,0,0,1,13.9,1.1,108.37,108.37,0,0,1,12.36,2.24Z"/><path class="cls-9" d="M527.09,68.79h-18.7l-4.79,22.6a42.08,42.08,0,0,0-1.14,8.37q0,5,5.77,5a33,33,0,0,0,11.13-2.28l-5,24A55.66,55.66,0,0,1,503.56,129a83.14,83.14,0,0,1-12.64,1.1q-24,0-24-22.68a50.12,50.12,0,0,1,1.1-8.69q1.09-5.77,6.21-29.92h-12.6l5.78-24h11.86l4-19.19,36.08-8.29-5.77,27.48h19.27Z"/><path class="cls-9" d="M601,128.05h-34.3q0-2.6,1.22-14.8h-.32q-12.36,16.83-27.8,16.83-12.28,0-19-8.53t-6.71-24a58.45,58.45,0,0,1,4.27-21.79A49.4,49.4,0,0,1,530.14,57.9a52.22,52.22,0,0,1,18.45-11.13,73.37,73.37,0,0,1,25.23-4,180.59,180.59,0,0,1,41.13,5l-10.81,51a129.7,129.7,0,0,0-2.23,14.63A142.69,142.69,0,0,0,601,128.05ZM576.83,65.3a20.66,20.66,0,0,0-5-.49,19.59,19.59,0,0,0-11.7,3.74q-5.2,3.74-8.41,11.22a37.45,37.45,0,0,0-3.21,15q0,4.88,2.11,7.44a6.49,6.49,0,0,0,5.2,2.56q5.85,0,10.49-6.62t7.31-19Z"/></svg>